REM DIRINDEX 1\2,1\4,1\5,1\6,1\7,1\3\8,1\3\9,1\3\10
REM DIRNAME cjc113,folder01,folder02,folder03,folder04,folder05,folder06,folder07,folder08,folder09
TITLE ""
FILE "DB4500_5th_1A_24.mp3" MP3
  TRACK 01 AUDIO
    TITLE "8:cjc113_0917"
    INDEX 01 00:00:00
  TRACK 02 AUDIO
    TITLE "0:"
    INDEX 01 00:01:21
  TRACK 03 AUDIO
    TITLE "9:cjc113_0918"
    INDEX 01 00:01:44
  TRACK 04 AUDIO
    TITLE "0:"
    INDEX 01 00:02:73
  TRACK 05 AUDIO
    TITLE "10:cjc113_0919"
    INDEX 01 00:03:21
  TRACK 06 AUDIO
    TITLE "0:"
    INDEX 01 00:06:49
  TRACK 07 AUDIO
    TITLE "8:cjc113_0920"
    INDEX 01 00:07:17
  TRACK 08 AUDIO
    TITLE "0:"
    INDEX 01 00:08:30
  TRACK 09 AUDIO
    TITLE "9:cjc113_0921"
    INDEX 01 00:08:54
  TRACK 10 AUDIO
    TITLE "0:"
    INDEX 01 00:10:06
  TRACK 11 AUDIO
    TITLE "10:cjc113_0922"
    INDEX 01 00:10:27
  TRACK 12 AUDIO
    TITLE "0:"
    INDEX 01 00:13:45
  TRACK 13 AUDIO
    TITLE "8:cjc113_0923"
    INDEX 01 00:14:13
  TRACK 14 AUDIO
    TITLE "0:"
    INDEX 01 00:15:36
  TRACK 15 AUDIO
    TITLE "9:cjc113_0924"
    INDEX 01 00:15:60
  TRACK 16 AUDIO
    TITLE "0:"
    INDEX 01 00:17:06
  TRACK 17 AUDIO
    TITLE "10:cjc113_0925"
    INDEX 01 00:17:27
  TRACK 18 AUDIO
    TITLE "0:"
    INDEX 01 00:20:04
  TRACK 19 AUDIO
    TITLE "8:cjc113_0926"
    INDEX 01 00:20:53
  TRACK 20 AUDIO
    TITLE "0:"
    INDEX 01 00:21:72
  TRACK 21 AUDIO
    TITLE "9:cjc113_0927"
    INDEX 01 00:22:17
  TRACK 22 AUDIO
    TITLE "0:"
    INDEX 01 00:23:30
  TRACK 23 AUDIO
    TITLE "10:cjc113_0928"
    INDEX 01 00:23:51
  TRACK 24 AUDIO
    TITLE "0:"
    INDEX 01 00:26:69
  TRACK 25 AUDIO
    TITLE "8:cjc113_0929"
    INDEX 01 00:27:36
  TRACK 26 AUDIO
    TITLE "0:"
    INDEX 01 00:28:45
  TRACK 27 AUDIO
    TITLE "9:cjc113_0930"
    INDEX 01 00:28:59
  TRACK 28 AUDIO
    TITLE "0:"
    INDEX 01 00:30:36
  TRACK 29 AUDIO
    TITLE "10:cjc113_0931"
    INDEX 01 00:30:54
  TRACK 30 AUDIO
    TITLE "0:"
    INDEX 01 00:33:42
  TRACK 31 AUDIO
    TITLE "8:cjc113_0932"
    INDEX 01 00:34:08
  TRACK 32 AUDIO
    TITLE "0:"
    INDEX 01 00:35:12
  TRACK 33 AUDIO
    TITLE "9:cjc113_0933"
    INDEX 01 00:35:31
  TRACK 34 AUDIO
    TITLE "0:"
    INDEX 01 00:37:08
  TRACK 35 AUDIO
    TITLE "10:cjc113_0934"
    INDEX 01 00:37:24
  TRACK 36 AUDIO
    TITLE "0:"
    INDEX 01 00:41:69
  TRACK 37 AUDIO
    TITLE "8:cjc113_0935"
    INDEX 01 00:42:31
  TRACK 38 AUDIO
    TITLE "0:"
    INDEX 01 00:43:44
  TRACK 39 AUDIO
    TITLE "9:cjc113_0936"
    INDEX 01 00:43:64
  TRACK 40 AUDIO
    TITLE "0:"
    INDEX 01 00:46:27
  TRACK 41 AUDIO
    TITLE "10:cjc113_0937"
    INDEX 01 00:46:41
  TRACK 42 AUDIO
    TITLE "0:"
    INDEX 01 00:51:54
  TRACK 43 AUDIO
    TITLE "8:cjc113_0938"
    INDEX 01 00:52:30
  TRACK 44 AUDIO
    TITLE "0:"
    INDEX 01 00:53:39
  TRACK 45 AUDIO
    TITLE "9:cjc113_0939"
    INDEX 01 00:53:57
  TRACK 46 AUDIO
    TITLE "0:"
    INDEX 01 00:55:03
  TRACK 47 AUDIO
    TITLE "10:cjc113_0940"
    INDEX 01 00:55:18
  TRACK 48 AUDIO
    TITLE "0:"
    INDEX 01 00:58:71
  TRACK 49 AUDIO
    TITLE "8:cjc113_0941"
    INDEX 01 00:59:38
  TRACK 50 AUDIO
    TITLE "0:"
    INDEX 01 01:00:45
  TRACK 51 AUDIO
    TITLE "9:cjc113_0942"
    INDEX 01 01:00:64
  TRACK 52 AUDIO
    TITLE "0:"
    INDEX 01 01:02:30
  TRACK 53 AUDIO
    TITLE "10:cjc113_0943"
    INDEX 01 01:02:50
  TRACK 54 AUDIO
    TITLE "0:"
    INDEX 01 01:06:12
  TRACK 55 AUDIO
    TITLE "8:cjc113_0944"
    INDEX 01 01:06:51
  TRACK 56 AUDIO
    TITLE "0:"
    INDEX 01 01:07:66
  TRACK 57 AUDIO
    TITLE "9:cjc113_0945"
    INDEX 01 01:08:11
  TRACK 58 AUDIO
    TITLE "0:"
    INDEX 01 01:09:48
  TRACK 59 AUDIO
    TITLE "10:cjc113_0946"
    INDEX 01 01:09:69
  TRACK 60 AUDIO
    TITLE "0:"
    INDEX 01 01:13:34
  TRACK 61 AUDIO
    TITLE "8:cjc113_0947"
    INDEX 01 01:13:73
  TRACK 62 AUDIO
    TITLE "0:"
    INDEX 01 01:14:72
  TRACK 63 AUDIO
    TITLE "9:cjc113_0948"
    INDEX 01 01:15:19
  TRACK 64 AUDIO
    TITLE "0:"
    INDEX 01 01:16:63
  TRACK 65 AUDIO
    TITLE "10:cjc113_0949"
    INDEX 01 01:17:04
  TRACK 66 AUDIO
    TITLE "0:"
    INDEX 01 01:19:54
  TRACK 67 AUDIO
    TITLE "8:cjc113_0950"
    INDEX 01 01:20:24
  TRACK 68 AUDIO
    TITLE "0:"
    INDEX 01 01:21:23
  TRACK 69 AUDIO
    TITLE "9:cjc113_0951"
    INDEX 01 01:21:41
  TRACK 70 AUDIO
    TITLE "0:"
    INDEX 01 01:22:72
  TRACK 71 AUDIO
    TITLE "10:cjc113_0952"
    INDEX 01 01:23:16
  TRACK 72 AUDIO
    TITLE "0:"
    INDEX 01 01:27:12
  TRACK 73 AUDIO
    TITLE "8:cjc113_0953"
    INDEX 01 01:27:53
  TRACK 74 AUDIO
    TITLE "0:"
    INDEX 01 01:28:61
  TRACK 75 AUDIO
    TITLE "9:cjc113_0954"
    INDEX 01 01:29:01
  TRACK 76 AUDIO
    TITLE "0:"
    INDEX 01 01:30:54
  TRACK 77 AUDIO
    TITLE "10:cjc113_0955"
    INDEX 01 01:30:69
  TRACK 78 AUDIO
    TITLE "0:"
    INDEX 01 01:34:46
  TRACK 79 AUDIO
    TITLE "8:cjc113_0956"
    INDEX 01 01:35:14
  TRACK 80 AUDIO
    TITLE "0:"
    INDEX 01 01:36:15
  TRACK 81 AUDIO
    TITLE "9:cjc113_0957"
    INDEX 01 01:36:37
  TRACK 82 AUDIO
    TITLE "0:"
    INDEX 01 01:37:46
  TRACK 83 AUDIO
    TITLE "10:cjc113_0958"
    INDEX 01 01:37:64
  TRACK 84 AUDIO
    TITLE "0:"
    INDEX 01 01:41:03
